HIERARCHY
ROOT HipCenter
{
    OFFSET 0.0 0.0 -0.0
    CHANNELS 6 Xposition Yposition Zposition Zrotation Xrotation Yrotation
    JOINT Spine
    {
        OFFSET 0.0 0.11782637238502502 0.0
        CHANNELS 3 Zrotation Xrotation Yrotation
        JOINT ShoulderCenter
        {
            OFFSET 0.0 0.3156246542930603 0.0
            CHANNELS 3 Zrotation Xrotation Yrotation
            JOINT LeftShoulder
            {
                OFFSET 0.16873063147068024 0.0 0.0
                CHANNELS 3 Zrotation Xrotation Yrotation
                JOINT LeftElbow
                {
                    OFFSET 0.24584174156188965 0.0 0.0
                    CHANNELS 3 Zrotation Xrotation Yrotation
                    JOINT LeftWrist
                    {
                        OFFSET 0.26728713512420654 0.0 0.0
                        CHANNELS 3 Zrotation Xrotation Yrotation
                        JOINT LeftHand
                        {
                            OFFSET 0.03277141600847244 0.0 0.0
                            CHANNELS 3 Zrotation Xrotation Yrotation
                            End Site
                            {
                                OFFSET 0.013108565472066402 0.0 0.0
                            }
                        }
                    }
                }
            }
            JOINT RightShoulder
            {
                OFFSET -0.16873063147068024 0.0 0.0
                CHANNELS 3 Zrotation Xrotation Yrotation
                JOINT RightElbow
                {
                    OFFSET -0.24584174156188965 0.0 0.0
                    CHANNELS 3 Zrotation Xrotation Yrotation
                    JOINT RightWrist
                    {
                        OFFSET -0.26728713512420654 0.0 0.0
                        CHANNELS 3 Zrotation Xrotation Yrotation
                        JOINT RightHand
                        {
                            OFFSET -0.03277141600847244 0.0 0.0
                            CHANNELS 3 Zrotation Xrotation Yrotation
                            End Site
                            {
                                OFFSET -0.013108565472066402 0.0 0.0
                            }
                        }
                    }
                }
            }
            End Site
            {
                OFFSET 0.0 0.12624984979629517 0.0
            }
        }
    }
    JOINT LeftHip
    {
        OFFSET 0.12338260561227798 0.0 0.0
        CHANNELS 3 Zrotation Xrotation Yrotation
        JOINT LeftKnee
        {
            OFFSET 0.0 -0.36658501625061035 0.0
            CHANNELS 3 Zrotation Xrotation Yrotation
            JOINT LeftAnkle
            {
                OFFSET 0.0 -0.38127270340919495 0.0
                CHANNELS 3 Zrotation Xrotation Yrotation
                JOINT LeftFoot
                {
                    OFFSET 0.0 -0.11606023460626602 0.0
                    CHANNELS 3 Zrotation Xrotation Yrotation
                    End Site
                    {
                        OFFSET 0.0 0.0 0.04642409458756447
                    }
                }
            }
        }
    }
    JOINT RightHip
    {
        OFFSET -0.12338260561227798 0.0 0.0
        CHANNELS 3 Zrotation Xrotation Yrotation
        JOINT RightKnee
        {
            OFFSET 0.0 -0.36658501625061035 0.0
            CHANNELS 3 Zrotation Xrotation Yrotation
            JOINT RightAnkle
            {
                OFFSET 0.0 -0.38127270340919495 0.0
                CHANNELS 3 Zrotation Xrotation Yrotation
                JOINT RightFoot
                {
                    OFFSET 0.0 -0.11606023460626602 0.0
                    CHANNELS 3 Zrotation Xrotation Yrotation
                    End Site
                    {
                        OFFSET 0.0 0.0 0.04642409458756447
                    }
                }
            }
        }
    }
}
MOTION
Frames: 6
Frame Time: 0.03333333333333333
0.44699999690055847 0.2619999945163727 -0.05299999937415123 -177.7973653411771 77.25125477646668 174.0919446753038 -1.8631134905272253 10.40264048225883 0.2894362949990992 1.819965806464357e-07 4.32740995873969e-06 3.4619743200371484 101.25244862700868 -12.656973701932417 -177.767668092835 3.4719971083245365e-06 3.6276411031355675e-06 59.65623785678297 179.99999913908752 -5.9883700226839816 -131.0512277166269 0.0 0.0 0.0 -107.26040807465023 1.4435924767900494 -176.9665621829765 -4.547926116858672e-06 3.32966380834746e-06 -54.57319558931843 4.365532730076408e-06 -67.40256100772852 -36.29198572356666 8.34895603884173e-15 -1.5902773407317584e-15 -3.1805546814635164e-15 179.05469343292975 -83.04500487443951 -136.53991316328822 61.215442566655895 38.5173124066867 -96.51676653355172 26.208698936516747 -73.1829708040532 76.97093881231005 3.1805546814635168e-15 -2.537996121378841e-31 -9.14409470920761e-15 144.28552494903803 -86.84826691813669 102.55852378398582 -47.89864796747668 40.26202002676068 79.0280012515656 -37.9819869490178 -60.20250007697411 -86.77181397792907 3.771648448040907e-34 -1.987846675914698e-16 2.1742073017817009e-16
0.44600000977516174 0.11400000005960464 -0.10700000077486038 -12.09471520951547 83.02313829105672 6.663047266467017 -0.4320850308648002 12.112374171970131 0.09622907928658388 1.3230804355288225e-07 -1.7596937347665013e-06 6.63802186060311 102.32941132694627 -12.332746941715785 178.39813231887314 4.443273891590064e-06 1.7368763883279057e-06 58.10942486282466 -179.99999772299827 -9.842739752336142 -132.6627388389345 6.361109362927033e-15 0.0 0.0 -112.26445140475532 6.117156623021674 -173.83708656339527 1.0212472932285515e-06 4.4726157560560365e-06 -54.21258913049664 6.147234153710087e-06 -66.94427994284241 -40.87883196953982 -7.951386703658792e-16 1.1034765745125397e-32 -1.5902773407317584e-15 -5.233458272648015 -83.6548227493194 39.07169112531739 47.706910564236665 30.291406880943114 -70.74243043718907 -170.495604154981 -81.69547190766833 -112.45618692679842 0.0 0.0 0.0 28.580333821073967 -77.7226336500592 -12.839162593277441 -33.937373301979626 32.94795029589178 50.73069031854351 -11.296999685461833 -68.9720509478686 -59.670791899884804 0.0 0.0 2.882377680076312e-15
0.44699999690055847 -0.041999999433755875 -0.16099999845027924 -6.788969217340675 68.96753239399447 1.9511385888300055 2.5694272074681193 10.203571499982145 -0.3224000735998878 -2.2547552569909422e-07 1.951993651747615e-06 5.766771483266206 102.8531554725193 -7.9861886131613 174.75555182269696 5.174110903409095e-07 3.0102899419317507e-06 57.39253227068854 179.9999965303913 -13.114947244137529 -134.47431922640885 6.361109362927033e-15 -7.951386703658792e-15 -1.2722218725854067e-14 -117.71912949165413 6.932872511356353 -172.88202659413136 4.334266349836805e-06 1.5595774633493445e-06 -55.932447077416626 -1.0978472077598958e-05 -65.1968872795669 -42.96699287712887 3.677516350442191e-15 -6.37947394640062e-33 -1.987846675914698e-16 -8.113475248469706 -77.83886515541977 33.492800713280445 44.64899477614377 30.270568327490984 -65.99830783841253 176.14707432124482 -73.35726899377572 -127.60632927323617 6.361109362927035e-15 -3.531125038440127e-31 -6.361109362927035e-15 23.431078250315238 -72.29685053492871 -17.03769861826921 -30.96817593287077 31.402261640895986 46.21297682271325 -15.295437803084386 -71.1758127484657 -63.852557852959954 1.5902773407317582e-15 -3.1805546814635164e-15 3.975693351829396e-16
0.44600000977516174 -0.2150000035762787 -0.22599999606609344 -3.066476138461983 61.6649527278695 1.3541135095716634 2.408607572008272 6.017240629281052 -0.2689086160003046 -3.3260040500543174e-07 5.115331499080558e-06 5.158885632628756 104.9919863612708 -4.491655801120566 175.05419868441524 -5.188798233708522e-06 -2.5339460386854444e-06 57.7607531913462 -179.99999064253404 -16.22987007678089 -134.58701364937895 -6.361109362927033e-15 1.7655625192200634e-31 -3.1805546814635164e-15 -117.22560577139653 14.867912206028938 -177.79893017615035 -6.38707702863425e-06 1.8311993025841295e-06 -54.782615245500196 1.0126271871441271e-05 -58.855018917984744 -46.44046104725697 -7.95138670365879e-15 5.5659706925611536e-15 3.1805546814635168e-15 -20.402825101885902 -83.16040214290511 21.087486287012677 53.17631025603212 36.73757911417141 -84.25960531769131 -130.53593685928044 -84.67463046587113 -77.35887099993346 2.2069531490250793e-32 -1.5902773407317584e-15 1.5902773407317584e-15 28.384996074337856 -79.35160007294505 -11.762663640827594 -48.690885250390274 38.40576924710408 78.63896120078012 -148.5956662786273 -62.22424660006569 162.47938555557226 4.4139062980501586e-32 -1.5902773407317584e-15 3.1805546814635168e-15
0.4410000145435333 -0.30300000309944153 -0.28600001335144043 -4.666834442808489 65.32277756739938 7.468598217593536 1.8576361370812413 1.5902653900715413 -0.06349932710479615 -3.701019008881438e-08 1.554780527064265e-06 2.2781830449965357 104.02991571876068 1.5558090913073208 -169.8735750074721 -2.409893495059416e-06 -4.210541517292926e-06 48.485365788352134 -179.99999665246952 -20.750200125442923 -124.5348191318657 0.0 6.3611093629270335e-15 0.0 -106.42440414888242 23.15290821138418 165.59869290354632 -2.5589926316220056e-06 -2.3325713966838661e-07 -50.626101231166345 8.812011132484201e-06 -53.81972775937939 -51.226927570903904 -3.1805546814635176e-15 -7.951386703658796e-16 3.1805546814635176e-15 -147.71165834823316 -76.30357380990891 -107.28673250223777 78.19251402330401 44.2956502641548 -112.62750567314905 8.430956103678037 -58.046217167176295 47.198103675083225 0.0 0.0 -4.572047354603805e-15 153.23359691989353 -80.79746416070566 112.87320223607811 -90.26461570924822 49.774331251512805 130.9174607685387 -110.59498410606233 -33.438415404515524 -157.5823207826458 0.0 -6.361109362927033e-15 0.0
0.42500001192092896 -0.33000001311302185 -0.3319999873638153 -19.5366072980469 73.76996714515352 22.743528522813815 4.144153710585908 -4.54525063435093 0.1065272797863855 2.568230259056234e-07 -1.4063915869383166e-06 1.216108776987115 108.0233471381099 -2.84735746304659 -161.14402693729093 1.2463031523751053e-07 -1.8462889151677402e-06 45.231262042936784 -179.99999665079463 -20.943686501233532 -124.92508786702676 0.0 0.0 -3.1805546814635168e-15 -107.73451632907472 14.676683786859028 157.26805729745544 2.592448072247061e-08 -4.20172611280054e-06 -47.563245511894955 -1.4283363956323246e-06 -55.80164280936515 -48.74844969200939 1.5902773407317582e-15 4.4139062980501586e-32 3.1805546814635164e-15 -174.71105610611707 -54.88313297963244 -137.43136747862982 118.91596475002589 54.016724365174234 -158.36218090247473 93.11779477576675 -31.724665288736 121.87427780102307 7.951386703658794e-16 8.276074308844047e-33 1.1927080055488192e-15 -179.91015823353877 -60.573678449793356 138.800760194472 -118.69155118879739 52.47767070355825 162.58687701374194 -98.88424192720528 -24.959807132666185 -133.50505640069397 7.951386703658787e-16 -6.559894030518502e-15 -6.162324695335562e-15
